<?xml version="1.0" encoding="iso-8859-1"?>
<svg version="1.1" id="Capa_1" xmlns="http://www.w3.org/2000/svg" xmlns:xlink="http://www.w3.org/1999/xlink" x="0px" y="0px"
	 width="44.237px" height="44.237px" viewBox="0 0 44.237 44.237" style="enable-background:new 0 0 44.237 44.237;"
	 xml:space="preserve" stroke="#bbb">
<g>
	<path d="M22.119,44.237C9.922,44.237,0,34.315,0,22.119S9.922,0,22.119,0s22.119,9.922,22.119,22.119S34.315,44.237,22.119,44.237z
		 M22.119,1.5C10.75,1.5,1.5,10.75,1.5,22.119s9.25,20.619,20.619,20.619s20.619-9.25,20.619-20.619S33.488,1.5,22.119,1.5z"/>
	<g>
		<line x1="12.805" y1="22.118" x2="31.433" y2="22.118"/>
		<path d="M31.433,22.868H12.805c-0.414,0-0.75-0.336-0.75-0.75s0.336-0.75,0.75-0.75h18.628c0.414,0,0.75,0.336,0.75,0.75
			S31.847,22.868,31.433,22.868z"/>
	</g>
	<g>
		<line x1="22.119" y1="12.805" x2="22.119" y2="31.432"/>
		<path d="M22.119,32.182c-0.414,0-0.75-0.336-0.75-0.75V12.805c0-0.414,0.336-0.75,0.75-0.75s0.75,0.336,0.75,0.75v18.627
			C22.869,31.846,22.533,32.182,22.119,32.182z"/>
	</g>
</g>
<g>
</g>
<g>
</g>
<g>
</g>
<g>
</g>
<g>
</g>
<g>
</g>
<g>
</g>
<g>
</g>
<g>
</g>
<g>
</g>
<g>
</g>
<g>
</g>
<g>
</g>
<g>
</g>
<g>
</g>
</svg>
