<?xml version="1.0" encoding="iso-8859-1"?>
<svg version="1.1" id="Capa_1" xmlns="http://www.w3.org/2000/svg" xmlns:xlink="http://www.w3.org/1999/xlink" x="0px" y="0px"
	 width="44.237px" height="44.237px" viewBox="0 0 44.237 44.237" style="enable-background:new 0 0 44.237 44.237;"
	 xml:space="preserve" stroke="#bbb">
<g>
	<g>
		<line x1="15.533" y1="28.704" x2="28.704" y2="15.533"/>
		<path d="M15.533,29.454c-0.192,0-0.384-0.073-0.53-0.22c-0.293-0.293-0.293-0.768,0-1.061l13.171-13.171
			c0.293-0.293,0.768-0.293,1.061,0s0.293,0.768,0,1.061L16.063,29.234C15.917,29.381,15.725,29.454,15.533,29.454z"/>
	</g>
	<g>
		<line x1="15.533" y1="15.533" x2="28.704" y2="28.704"/>
		<path d="M28.704,29.454c-0.192,0-0.384-0.073-0.53-0.22L15.002,16.063c-0.293-0.293-0.293-0.768,0-1.061s0.768-0.293,1.061,0
			l13.171,13.171c0.293,0.293,0.293,0.768,0,1.061C29.088,29.381,28.896,29.454,28.704,29.454z"/>
	</g>
	<path d="M22.119,44.237C9.922,44.237,0,34.315,0,22.119S9.922,0,22.119,0s22.119,9.922,22.119,22.119S34.315,44.237,22.119,44.237z
		 M22.119,1.5C10.75,1.5,1.5,10.75,1.5,22.119s9.25,20.619,20.619,20.619s20.619-9.25,20.619-20.619S33.488,1.5,22.119,1.5z"/>
</g>
<g>
</g>
<g>
</g>
<g>
</g>
<g>
</g>
<g>
</g>
<g>
</g>
<g>
</g>
<g>
</g>
<g>
</g>
<g>
</g>
<g>
</g>
<g>
</g>
<g>
</g>
<g>
</g>
<g>
</g>
</svg>
