<?xml version="1.0" encoding="iso-8859-1"?>
<svg version="1.1" id="Capa_1" xmlns="http://www.w3.org/2000/svg" xmlns:xlink="http://www.w3.org/1999/xlink" x="0px" y="0px"
	 width="44.238px" height="44.236px" viewBox="0 0 44.238 44.236" style="enable-background:new 0 0 44.238 44.236;"
	 xml:space="preserve" stroke="#bbb">
<g>
	<path d="M22.119,44.236C9.923,44.236,0,34.314,0,22.118S9.923,0,22.119,0s22.119,9.922,22.119,22.118S34.315,44.236,22.119,44.236z
		 M22.119,1.5C10.75,1.5,1.5,10.749,1.5,22.118s9.25,20.618,20.619,20.618s20.619-9.249,20.619-20.618S33.488,1.5,22.119,1.5z"/>
	<g>
		<line x1="22.119" y1="12.951" x2="22.119" y2="24.578"/>
		<path d="M22.119,25.328c-0.414,0-0.75-0.336-0.75-0.75V12.951c0-0.414,0.336-0.75,0.75-0.75s0.75,0.336,0.75,0.75v11.627
			C22.869,24.992,22.533,25.328,22.119,25.328z"/>
	</g>
	<g>
		<line x1="12.805" y1="29.414" x2="31.434" y2="29.414"/>
		<path d="M31.434,30.164H12.805c-0.414,0-0.75-0.336-0.75-0.75s0.336-0.75,0.75-0.75h18.629c0.414,0,0.75,0.336,0.75,0.75
			S31.848,30.164,31.434,30.164z"/>
	</g>
	<g>
		<line x1="18.785" y1="21.252" x2="22.119" y2="24.578"/>
		<path d="M22.119,25.328c-0.191,0-0.384-0.073-0.529-0.219l-3.334-3.326c-0.294-0.293-0.294-0.768-0.002-1.061
			c0.292-0.294,0.769-0.294,1.061-0.002l3.334,3.326c0.294,0.293,0.294,0.768,0.002,1.061
			C22.504,25.255,22.312,25.328,22.119,25.328z"/>
	</g>
	<g>
		<line x1="25.453" y1="21.252" x2="22.119" y2="24.578"/>
		<path d="M22.119,25.328c-0.192,0-0.385-0.073-0.531-0.221c-0.292-0.293-0.292-0.768,0.002-1.061l3.334-3.326
			c0.292-0.292,0.769-0.292,1.061,0.002c0.292,0.293,0.292,0.768-0.002,1.061l-3.334,3.326
			C22.503,25.255,22.311,25.328,22.119,25.328z"/>
	</g>
</g>
<g>
</g>
<g>
</g>
<g>
</g>
<g>
</g>
<g>
</g>
<g>
</g>
<g>
</g>
<g>
</g>
<g>
</g>
<g>
</g>
<g>
</g>
<g>
</g>
<g>
</g>
<g>
</g>
<g>
</g>
</svg>
