<?xml version="1.0" standalone="no"?><!DOCTYPE svg PUBLIC "-//W3C//DTD SVG 1.1//EN" "http://www.w3.org/Graphics/SVG/1.1/DTD/svg11.dtd"><svg t="1599730360112" class="icon" viewBox="0 0 1024 1024" version="1.1" xmlns="http://www.w3.org/2000/svg" p-id="3048" xmlns:xlink="http://www.w3.org/1999/xlink" width="200" height="200"><defs><style type="text/css"></style></defs><path d="M512.476 648.247c-170.169 0-308.118-136.411-308.118-304.681 0-168.271 137.949-304.681 308.118-304.681 170.169 0 308.119 136.411 308.119 304.681C820.594 511.837 682.645 648.247 512.476 648.247L512.476 648.247zM512.476 100.186c-135.713 0-246.12 109.178-246.12 243.381 0 134.202 110.407 243.381 246.12 243.381 135.719 0 246.126-109.179 246.126-243.381C758.602 209.364 648.195 100.186 512.476 100.186L512.476 100.186zM935.867 985.115l-26.164 0c-9.648 0-17.779-6.941-19.384-16.35-2.646-15.426-6.277-30.52-11.142-44.95-24.769-87.686-81.337-164.13-159.104-214.266-63.232 35.203-134.235 53.64-207.597 53.64-73.555 0-144.73-18.537-208.084-53.922-78 50.131-134.75 126.68-159.564 214.549 0 0-4.893 18.172-11.795 46.4-2.136 8.723-10.035 14.9-19.112 14.9L88.133 985.116c-9.415 0-16.693-8.214-15.47-17.452C91.698 824.084 181.099 702.474 305.51 637.615c58.682 40.472 129.996 64.267 206.966 64.267 76.799 0 147.968-23.684 206.584-63.991 124.123 64.932 213.281 186.403 232.277 329.772C952.56 976.901 945.287 985.115 935.867 985.115L935.867 985.115z" p-id="3049" fill="#5f5f5f"></path></svg>